<?xml version="1.0" encoding="UTF-8"?><svg id="a" xmlns="http://www.w3.org/2000/svg" xmlns:xlink="http://www.w3.org/1999/xlink" viewBox="0 0 500 500"><defs><style>.i{fill:#fff;}.j{fill:url(#c);}.k{fill:#231f20;stroke:#231f20;stroke-miterlimit:10;}.l{fill:url(#f);}.m{fill:url(#g);}.n{fill:url(#b);}.o{fill:url(#h);}.p{fill:url(#d);}.q{fill:url(#e);}</style><linearGradient id="b" x1="287.38" y1="375.75" x2="273.91" y2="276.67" gradientTransform="matrix(1, 0, 0, 1, 0, 0)" gradientUnits="userSpaceOnUse"><stop offset="0" stop-color="#fff"/><stop offset="1" stop-color="#000"/></linearGradient><linearGradient id="c" x1="424" y1="293.94" x2="396.79" y2="93.77" gradientTransform="translate(-22.37 54.05) rotate(-6.59)" xlink:href="#b"/><linearGradient id="d" x1="186.15" y1="51.66" x2="206.34" y2="-10.77" gradientTransform="translate(279.4 383.19) rotate(-84.14) scale(.97 -.97) skewX(-3.46)" gradientUnits="userSpaceOnUse"><stop offset=".27" stop-color="#fff"/><stop offset=".43" stop-color="#fafafa"/><stop offset=".59" stop-color="#eee"/><stop offset=".75" stop-color="#dadada"/><stop offset=".9" stop-color="#bebebe"/><stop offset="1" stop-color="#aaa"/></linearGradient><linearGradient id="e" x1="220.49" y1="338.41" x2="-59.1" y2="404.48" gradientTransform="translate(-20.49 7.6) rotate(-3.38)" gradientUnits="userSpaceOnUse"><stop offset="0" stop-color="#fff"/><stop offset="1" stop-color="#c6c6c6"/></linearGradient><linearGradient id="f" x1="373.64" y1="164.3" x2="394.95" y2="88.44" gradientTransform="translate(30.48 -56.97) rotate(10.37)" gradientUnits="userSpaceOnUse"><stop offset="0" stop-color="#f16667"/><stop offset="1" stop-color="#f6881f"/></linearGradient><linearGradient id="g" x1="217.73" y1="296.7" x2="230.37" y2="232.94" gradientTransform="matrix(1, 0, 0, 1, 0, 0)" gradientUnits="userSpaceOnUse"><stop offset="0" stop-color="#f16667"/><stop offset="1" stop-color="#f6881f"/></linearGradient><linearGradient id="h" x1="309.24" y1="241.94" x2="372.88" y2="124.62" gradientTransform="matrix(1, 0, 0, 1, 0, 0)" gradientUnits="userSpaceOnUse"><stop offset="0" stop-color="#f16667"/><stop offset="1" stop-color="#f6881f"/></linearGradient></defs><path class="n" d="M302.41,386.95c-17.34,17.04-44.52,21.8-51.05,15.16-6.52-6.64,10.08-22.17,27.42-39.21,17.34-17.04,34.84-41.15,41.36-34.51,6.52,6.64-.4,41.52-17.74,58.55Z"/><path class="j" d="M465.74,301.44c-23.91,69.88-65.92,54.74-77.87,45.09-11.95-9.64,12.32-38.23,37.5-69.42,25.18-31.19,25.73-87.15,37.68-77.51,11.95,9.64,15.67,63.91,2.69,101.84Z"/><path class="p" d="M284.33,156.15c-67.8,28.01-52.5,67.47-42.95,78.31,9.55,10.84,37.11-14.59,67.18-41.09,30.08-26.5,84.61-31,75.06-41.84-9.55-10.84-62.49-10.59-99.29,4.61Z"/><path class="q" d="M184.29,348.87c-83.84,7.81-86.54,6.22-140.26,.36-36.51-3.98-48.01-7.78-41.98,12.41,6.82,22.83,38.83,30.36,36.23,43.35-10.11,21.39-33.36,27.06-28.34,29.09,20.09,8.12,53.59-5.34,67.7-9.93,27.76-9.03,35.96-14.37,112.52-47.89,10.06-4.41-11.01-2.96-30.42-3.49,21.32-11.07,36.9-25.06,24.53-23.91Z"/><path class="i" d="M78.64,391.32c-14.38,.72,63.08-9.91,133.45-73.4,36.76-33.16,58.93-65.05,82.1-123.78,0,0,27.77-60.53,61.73-94.69,19.93-20.05,42.45-36.85,57.53-41.95,12.45-4.21,26.67-6.79,39.7-5.09,0,0,25.32,2.4,31.01,22.47,11.09,39.09-1.2,119.86-40.75,172.6-50.96,67.94-129.71,102.39-170.2,115.07-85.54,26.79-176.6,27.87-194.58,28.77Z"/><path class="l" d="M426.08,117.05c-7.29,16.84-26.61,19.97-40.59,8.08-13.98-11.89-16.7-27.66-2.95-39.81,7.1-6.28,37-26.81,46-10.82,7.87,13.97,5.4,24.39-2.46,42.55Z"/><ellipse class="k" cx="459.21" cy="150.72" rx="19.45" ry="8.99" transform="translate(232.34 577.47) rotate(-80.17)"/><path class="i" d="M483.21,85.77c7.77,.42,13.38,19.58,15.47,29.33,.9,4.2,.84,16.49,.7,21.73-1.16-15.86-6.5-24.54-11.57-29.61-5.69-5.68-12.7-8.49-12.43-13.7,.2-3.82,4.25-7.95,7.83-7.75Z"/><path class="m" d="M238.45,327.09c13.18-11.39,21.2-39.42,13.13-48.4-.52-.58-1.06-1.05-1.63-1.43-10.97,14.53-23.26,27.5-37.86,40.67-14.73,13.29-28.74,23.55-41.25,31.42,14.71,3.82,44.59-2.37,67.61-22.25Z"/><path class="o" d="M309.34,246.45c34.77-1.68,63.42-25.13,64.13-59.93,.86-42.26-11.21-63.17-31.47-71.29-27.31,34.25-47.8,78.92-47.8,78.92-7.46,18.9-14.81,35.01-22.58,49.28,7.91,2.74,19.88,3.89,37.72,3.03Z"/></svg>