<?xml version="1.0" encoding="UTF-8"?><svg id="a" xmlns="http://www.w3.org/2000/svg" xmlns:xlink="http://www.w3.org/1999/xlink" viewBox="0 0 500 500"><defs><style>.i{fill:#fff;}.j{fill:url(#c);}.k{fill:#231f20;stroke:#231f20;stroke-miterlimit:10;}.l{fill:url(#f);}.m{fill:url(#g);}.n{fill:url(#b);}.o{fill:url(#h);}.p{fill:url(#d);}.q{fill:url(#e);}</style><linearGradient id="b" x1="241.35" y1="345.68" x2="231.36" y2="272.21" gradientTransform="matrix(1, 0, 0, 1, 0, 0)" gradientUnits="userSpaceOnUse"><stop offset="0" stop-color="#fff"/><stop offset="1" stop-color="#000"/></linearGradient><linearGradient id="c" x1="342.13" y1="274.6" x2="321.96" y2="126.15" gradientTransform="translate(-22.37 54.05) rotate(-6.59)" xlink:href="#b"/><linearGradient id="d" x1="169.12" y1="86.83" x2="184.09" y2="40.53" gradientTransform="translate(279.4 383.19) rotate(-84.14) scale(.97 -.97) skewX(-3.46)" gradientUnits="userSpaceOnUse"><stop offset=".27" stop-color="#fff"/><stop offset=".43" stop-color="#fafafa"/><stop offset=".59" stop-color="#eee"/><stop offset=".75" stop-color="#dadada"/><stop offset=".9" stop-color="#bebebe"/><stop offset="1" stop-color="#aaa"/></linearGradient><linearGradient id="e" x1="193.15" y1="317.89" x2="-14.2" y2="366.89" gradientTransform="translate(-20.49 7.6) rotate(-3.38)" gradientUnits="userSpaceOnUse"><stop offset="0" stop-color="#fff"/><stop offset="1" stop-color="#c6c6c6"/></linearGradient><linearGradient id="f" x1="311.83" y1="198.59" x2="327.63" y2="142.34" gradientTransform="translate(30.48 -56.97) rotate(10.37)" gradientUnits="userSpaceOnUse"><stop offset="0" stop-color="#f16667"/><stop offset="1" stop-color="#f6881f"/></linearGradient><linearGradient id="g" x1="189.7" y1="287.06" x2="199.07" y2="239.77" gradientTransform="matrix(1, 0, 0, 1, 0, 0)" gradientUnits="userSpaceOnUse"><stop offset="0" stop-color="#f16667"/><stop offset="1" stop-color="#f6881f"/></linearGradient><linearGradient id="h" x1="257.56" y1="246.45" x2="304.76" y2="159.44" gradientTransform="matrix(1, 0, 0, 1, 0, 0)" gradientUnits="userSpaceOnUse"><stop offset="0" stop-color="#f16667"/><stop offset="1" stop-color="#f6881f"/></linearGradient></defs><path class="n" d="M252.5,353.99c-12.86,12.63-33.02,16.17-37.86,11.24s7.48-16.44,20.33-29.08c12.86-12.63,25.84-30.51,30.67-25.59,4.84,4.92-.3,30.79-13.15,43.42Z"/><path class="j" d="M373.62,290.57c-17.73,51.82-48.89,40.59-57.75,33.44-8.86-7.15,9.14-28.35,27.81-51.48,18.67-23.13,19.08-64.63,27.94-57.48,8.86,7.15,11.62,47.4,2,75.52Z"/><path class="p" d="M239.09,182.83c-50.28,20.77-38.94,50.04-31.85,58.08,7.08,8.04,27.52-10.82,49.82-30.47,22.31-19.65,62.75-22.99,55.66-31.03-7.08-8.04-46.35-7.85-73.63,3.42Z"/><path class="q" d="M164.9,325.74c-62.17,5.79-64.18,4.61-104.01,.27-27.08-2.95-35.61-5.77-31.13,9.2,5.06,16.93,28.8,22.52,26.87,32.15-7.5,15.86-24.74,20.07-21.01,21.58,14.9,6.03,39.74-3.96,50.21-7.36,20.59-6.69,26.67-10.65,83.44-35.52,7.46-3.27-8.16-2.19-22.56-2.59,15.81-8.21,27.37-18.59,18.19-17.73Z"/><path class="i" d="M86.56,357.22c-10.66,.53,46.78-7.35,98.96-54.43,27.26-24.59,43.7-48.24,60.89-91.79,0,0,20.59-44.89,45.78-70.22,14.78-14.87,31.48-27.33,42.67-31.11,9.23-3.12,19.78-5.04,29.44-3.78,0,0,18.78,1.78,23,16.67,8.22,28.99-.89,88.89-30.22,128-37.79,50.39-96.19,75.93-126.22,85.33-63.44,19.87-130.96,20.67-144.3,21.34Z"/><path class="l" d="M344.21,153.83c-5.4,12.49-19.73,14.81-30.1,5.99-10.37-8.82-12.39-20.51-2.19-29.53,5.26-4.65,27.44-19.88,34.11-8.02,5.84,10.36,4,18.09-1.82,31.55Z"/><ellipse class="k" cx="368.78" cy="178.8" rx="14.43" ry="6.67" transform="translate(129.67 511.65) rotate(-80.17)"/><path class="i" d="M386.58,130.64c5.76,.31,9.93,14.52,11.47,21.75,.67,3.11,.62,12.23,.52,16.12-.86-11.76-4.82-18.2-8.58-21.96-4.22-4.22-9.42-6.3-9.22-10.16,.15-2.83,3.15-5.89,5.8-5.75Z"/><path class="m" d="M205.07,309.59c9.78-8.44,15.72-29.23,9.74-35.9-.38-.43-.79-.78-1.21-1.06-8.14,10.77-17.25,20.39-28.08,30.16-10.93,9.86-21.31,17.47-30.59,23.3,10.91,2.83,33.07-1.76,50.14-16.5Z"/><path class="o" d="M257.64,249.79c25.78-1.25,47.03-18.64,47.56-44.44,.64-31.34-8.31-46.84-23.34-52.87-20.25,25.4-35.45,58.52-35.45,58.52-5.53,14.01-10.98,25.96-16.75,36.55,5.87,2.04,14.74,2.88,27.97,2.24Z"/></svg>