<?xml version="1.0" encoding="UTF-8"?><svg id="a" xmlns="http://www.w3.org/2000/svg" xmlns:xlink="http://www.w3.org/1999/xlink" viewBox="0 0 500 500"><defs><style>.i{fill:#fff;}.j{fill:url(#c);}.k{fill:#231f20;stroke:#231f20;stroke-miterlimit:10;}.l{fill:url(#f);}.m{fill:url(#g);}.n{fill:url(#b);}.o{fill:url(#h);}.p{fill:url(#d);}.q{fill:url(#e);}</style><linearGradient id="b" x1="246.97" y1="266.36" x2="-32.63" y2="332.43" gradientTransform="translate(-226.79 320.8) rotate(-62.72)" gradientUnits="userSpaceOnUse"><stop offset="0" stop-color="#fff"/><stop offset="1" stop-color="#c6c6c6"/></linearGradient><linearGradient id="c" x1="280.31" y1="243.44" x2="269.14" y2="161.31" gradientTransform="translate(-94.33 70.09) rotate(-13.43)" gradientUnits="userSpaceOnUse"><stop offset="0" stop-color="#fff"/><stop offset="1" stop-color="#000"/></linearGradient><linearGradient id="d" x1="321.16" y1="260.15" x2="293.95" y2="59.98" gradientTransform="translate(21.75 -14.67) rotate(3.96)" xlink:href="#c"/><linearGradient id="e" x1="346.26" y1="146.64" x2="232.58" y2="-21.81" gradientTransform="translate(117.08 382.24) rotate(-37.8) scale(1 -1) skewX(-.32)" gradientUnits="userSpaceOnUse"><stop offset="0" stop-color="#fff"/><stop offset=".14" stop-color="#fbfbfb"/><stop offset=".26" stop-color="#f0f0f0"/><stop offset=".39" stop-color="#ddd"/><stop offset=".51" stop-color="#c2c2c2"/><stop offset=".63" stop-color="#a0a0a0"/><stop offset=".75" stop-color="#767676"/><stop offset=".86" stop-color="#444"/><stop offset=".98" stop-color="#0c0c0c"/><stop offset="1" stop-color="#000"/></linearGradient><linearGradient id="f" x1="171.35" y1="296.7" x2="552.14" y2="85.47" gradientTransform="matrix(1, 0, 0, 1, 0, 0)" gradientUnits="userSpaceOnUse"><stop offset=".18" stop-color="#f16667"/><stop offset=".25" stop-color="#f16b5b"/><stop offset=".43" stop-color="#f37741"/><stop offset=".61" stop-color="#f4802e"/><stop offset=".8" stop-color="#f58622"/><stop offset="1" stop-color="#f6881f"/></linearGradient><linearGradient id="g" x1="141.98" y1="193.78" x2="367.1" y2="68.9" xlink:href="#f"/><linearGradient id="h" x1="308.79" y1="224.05" x2="502.7" y2="117.39" xlink:href="#f"/></defs><path class="n" d="M119.3,262.15c-36.04,76.1-38.79,77.61-71.22,120.83-22.04,29.38-31.18,37.33-10.73,42.44,23.11,5.77,45.92-17.91,55.77-9.06,13.24,19.61,6.27,42.49,10.57,39.21,17.23-13.13,22.74-48.81,25.99-63.3,6.39-28.48,5.98-38.26,16.19-121.21,1.34-10.9-8.16,7.96-18.51,24.38,1.35-23.98-2.74-44.52-8.06-33.29Z"/><path class="j" d="M251.26,233.77c-12.91,20.6-50.42,49.88-58.31,44.94-7.89-4.94,24.7-39.85,37.6-60.45s33.25-30.14,41.14-25.2c7.89,4.94-7.53,20.11-20.44,40.71Z"/><path class="p" d="M356.01,277.14c-36.3,64.32-74.83,41.73-84.81,30.07-9.98-11.67,19.12-35.33,49.58-61.38,30.46-26.05,41.26-80.96,51.24-69.29,9.98,11.67,3.69,65.7-16.01,100.61Z"/><path class="q" d="M313.21,75.31c-66.07-32.89-85.37,7.14-87.11,22.31-1.74,15.17,35.61,18.53,75.43,23.09,39.82,4.57,79.5,43.87,81.24,28.7,1.74-15.17-33.7-56.25-69.56-74.11Z"/><path class="i" d="M93.67,391.44c14.22-127.11,46.02-186.78,59.11-205.33,33.78-47.85,83.15-66.32,106.67-73.33,72.47-21.61,170.6,1.8,202.44,25.11,56.44,41.33-8.23,76.01-72.22,77.56-73.78,1.78-124.74-2.67-168.3,19.56-43.91,22.41-87.41,60.44-127.7,156.44Z"/><ellipse class="k" cx="425.5" cy="191.47" rx="19.45" ry="8.99" transform="translate(-9.08 21.62) rotate(-2.88)"/><path class="i" d="M474.97,192.49c-3.76,6.81-14.45,18.81-23.06,23.83-3.71,2.16-15.41,5.93-20.44,7.43,14.71-6.03,21.3-13.81,24.54-20.21,3.63-7.17,6.32-24.14,11.36-25.5,3.69-1,28.3-23.04,7.6,14.45Z"/><path class="l" d="M235.63,228.76c40.47-15.08,88.15-11.73,154.03-13.31,4.31-.1,8.61-.36,12.89-.76-4.18-18.04-26.85-61.81-117.78-26.21-22.8,8.93-40.69,26.97-49.14,40.28Z"/><path class="m" d="M216.06,130.69c-21.19,11.52-44.62,28.98-63.28,55.42-2.18,3.09-4.88,7.33-7.94,12.83,13.06,3.64,59.38,6.48,71.22-68.25Z"/><path class="o" d="M471.89,160.5c0,9.32-12.89,5.05-24.67,2.26-9.07-2.15-24.67-18.05-24.67-27.36s15.56-7.56,28.46,0c8.04,4.71,20.87,15.79,20.87,25.11Z"/></svg>